<svg xmlns="http://www.w3.org/2000/svg" viewBox="0 0 1920 1080" preserveAspectRatio="xMidYMid slice">
  <defs>
    <linearGradient id="bg" x1="0" y1="0" x2="0" y2="1">
      <stop offset="0" stop-color="#020617"/>
      <stop offset="0.6" stop-color="#0f172a"/>
      <stop offset="1" stop-color="#1e293b"/>
    </linearGradient>
    <radialGradient id="moon">
      <stop offset="0" stop-color="#e2e8f0" stop-opacity="0.95"/>
      <stop offset="0.35" stop-color="#e2e8f0" stop-opacity="0.35"/>
      <stop offset="1" stop-color="#e2e8f0" stop-opacity="0"/>
    </radialGradient>
  </defs>
  <rect width="1920" height="1080" fill="url(#bg)"/>
  <circle cx="1440" cy="260" r="90" fill="#f1f5f9"/>
  <circle cx="1505" cy="225" r="70" fill="#020617"/>
  <circle cx="1440" cy="260" r="260" fill="url(#moon)"/>
  <g fill="#cbd5e1">
    <circle cx="180" cy="180" r="1.6"/>
    <circle cx="420" cy="120" r="1.3"/>
    <circle cx="700" cy="240" r="1.8"/>
    <circle cx="980" cy="140" r="1.2"/>
    <circle cx="1240" cy="90" r="1.5"/>
    <circle cx="1620" cy="560" r="1.4"/>
    <circle cx="250" cy="420" r="1.4"/>
    <circle cx="540" cy="380" r="1.2"/>
    <circle cx="860" cy="330" r="1.6"/>
    <circle cx="1100" cy="480" r="1.3"/>
    <circle cx="1720" cy="180" r="1.5"/>
    <circle cx="380" cy="640" r="1.2"/>
    <circle cx="1560" cy="700" r="1.3"/>
    <circle cx="80" cy="260" r="1.5"/>
    <circle cx="900" cy="600" r="1.2"/>
  </g>
  <path d="M0 900 Q 300 840 620 890 T 1260 880 T 1920 890 V 1080 H 0 Z" fill="#020617" opacity="0.6"/>
</svg>